<?xml version="1.0" encoding="utf-8"?>
<!-- Generator: Adobe Illustrator 28.1.0, SVG Export Plug-In . SVG Version: 6.00 Build 0)  -->
<svg version="1.1" id="Map" xmlns="http://www.w3.org/2000/svg" xmlns:xlink="http://www.w3.org/1999/xlink" x="0px" y="0px"
	 viewBox="0 0 3309 2339" style="enable-background:new 0 0 3309 2339;" xml:space="preserve">
<image style="display:none;overflow:visible;enable-background:new    ;" width="3309" height="2339" xlink:href="C830B530.png" >
</image>
<polygon id="V-1300" points="1412,1201 1412,1200 1413,1200 1413,1199 1415,1199 1415,1198 1417,1198 1417,1197 1420,1197 
	1420,1196 1462,1196 1462,1197 1465,1197 1465,1196 1465,1197 1469,1197 1469,1196 1715,1196 1715,1197 1718,1197 1718,1198 
	1720,1198 1720,1199 1722,1199 1722,1200 1723,1200 1723,1201 1724,1201 1724,1202 1725,1202 1725,1203 1726,1203 1726,1204 
	1727,1204 1727,1205 1728,1205 1728,1207 1729,1207 1729,1209 1730,1209 1730,1211 1731,1211 1731,1213 1732,1213 1732,1216 
	1733,1216 1733,1218 1734,1218 1734,1221 1735,1221 1735,1223 1736,1223 1736,1226 1737,1226 1737,1230 1738,1230 1738,1233 
	1739,1233 1739,1237 1740,1237 1740,1242 1741,1242 1741,1249 1742,1249 1742,1258 1743,1258 1743,1272 1742,1272 1742,1282 
	1741,1282 1741,1288 1740,1288 1740,1292 1740,1291 1738,1291 1738,1290 1737,1290 1737,1289 1736,1289 1736,1288 1735,1288 
	1735,1287 1732,1287 1732,1288 1731,1288 1731,1289 1729,1289 1729,1290 1728,1290 1728,1291 1727,1291 1727,1292 1724,1292 
	1724,1293 1719,1293 1719,1292 1716,1292 1716,1291 1715,1291 1715,1290 1713,1290 1713,1289 1712,1289 1712,1287 1708,1287 
	1708,1288 1707,1288 1707,1289 1706,1289 1706,1290 1704,1290 1704,1291 1703,1291 1703,1292 1700,1292 1700,1293 1695,1293 
	1695,1292 1693,1292 1693,1291 1691,1291 1691,1290 1690,1290 1690,1289 1689,1289 1689,1288 1688,1288 1688,1287 1684,1287 
	1684,1288 1683,1288 1683,1289 1682,1289 1682,1290 1681,1290 1681,1291 1679,1291 1679,1292 1676,1292 1676,1293 1672,1293 
	1672,1292 1669,1292 1669,1291 1667,1291 1667,1290 1666,1290 1666,1289 1665,1289 1665,1288 1664,1288 1664,1287 1660,1287 
	1660,1288 1659,1288 1659,1289 1658,1289 1658,1290 1657,1290 1657,1291 1655,1291 1655,1292 1653,1292 1653,1293 1648,1293 
	1648,1292 1645,1292 1645,1291 1643,1291 1643,1290 1642,1290 1642,1289 1641,1289 1641,1288 1640,1288 1640,1287 1637,1287 
	1637,1288 1636,1288 1636,1289 1635,1289 1635,1290 1633,1290 1633,1291 1632,1291 1632,1292 1629,1292 1629,1293 1624,1293 
	1624,1292 1622,1292 1622,1291 1620,1291 1620,1290 1619,1290 1619,1289 1618,1289 1618,1288 1617,1288 1617,1287 1613,1287 
	1613,1314 1617,1314 1617,1294 1617,1295 1619,1295 1619,1296 1622,1296 1622,1297 1631,1297 1631,1296 1634,1296 1634,1295 
	1636,1295 1636,1294 1637,1294 1637,1293 1638,1293 1638,1292 1639,1292 1639,1293 1640,1293 1640,1294 1641,1294 1641,1295 
	1643,1295 1643,1296 1646,1296 1646,1297 1655,1297 1655,1296 1658,1296 1658,1295 1659,1295 1659,1294 1661,1294 1661,1293 
	1662,1293 1662,1292 1662,1293 1663,1293 1663,1294 1665,1294 1665,1295 1667,1295 1667,1296 1670,1296 1670,1297 1678,1297 
	1678,1296 1681,1296 1681,1295 1683,1295 1683,1294 1684,1294 1684,1293 1686,1293 1686,1292 1686,1293 1687,1293 1687,1294 
	1689,1294 1689,1295 1691,1295 1691,1296 1694,1296 1694,1297 1702,1297 1702,1296 1705,1296 1705,1295 1707,1295 1707,1294 
	1708,1294 1708,1293 1709,1293 1709,1292 1710,1292 1710,1293 1711,1293 1711,1294 1712,1294 1712,1295 1714,1295 1714,1296 
	1717,1296 1717,1297 1726,1297 1726,1296 1729,1296 1729,1295 1731,1295 1731,1294 1732,1294 1732,1293 1733,1293 1733,1292 
	1733,1293 1734,1293 1734,1294 1736,1294 1736,1295 1738,1295 1738,1296 1739,1296 1739,1297 1738,1297 1738,1301 1737,1301 
	1737,1304 1736,1304 1736,1307 1735,1307 1735,1310 1734,1310 1734,1312 1733,1312 1733,1315 1732,1315 1732,1317 1731,1317 
	1731,1319 1730,1319 1730,1321 1729,1321 1729,1323 1728,1323 1728,1325 1727,1325 1727,1326 1726,1326 1726,1327 1725,1327 
	1725,1328 1724,1328 1724,1329 1723,1329 1723,1330 1722,1330 1722,1331 1720,1331 1720,1332 1718,1332 1718,1333 1715,1333 
	1715,1334 1617,1334 1617,1323 1613,1323 1613,1334 1420,1334 1420,1333 1417,1333 1417,1332 1415,1332 1415,1331 1413,1331 
	1413,1330 1412,1330 1412,1329 1411,1329 1411,1328 1410,1328 1410,1327 1409,1327 1409,1326 1408,1326 1408,1325 1407,1325 
	1407,1323 1406,1323 1406,1321 1405,1321 1405,1319 1404,1319 1404,1317 1403,1317 1403,1314 1402,1314 1402,1312 1401,1312 
	1401,1309 1400,1309 1400,1306 1399,1306 1399,1303 1398,1303 1398,1300 1397,1300 1397,1296 1396,1296 1396,1292 1395,1292 
	1395,1288 1394,1288 1394,1281 1393,1281 1393,1273 1395,1273 1395,1272 1397,1272 1397,1271 1399,1271 1399,1270 1400,1270 
	1400,1269 1402,1269 1402,1270 1404,1270 1404,1271 1406,1271 1406,1272 1408,1272 1408,1273 1418,1273 1418,1272 1421,1272 
	1421,1271 1423,1271 1423,1270 1424,1270 1424,1269 1425,1269 1425,1268 1425,1269 1426,1269 1426,1270 1427,1270 1427,1271 
	1429,1271 1429,1272 1432,1272 1432,1273 1443,1273 1443,1272 1445,1272 1445,1271 1447,1271 1447,1270 1448,1270 1448,1269 
	1449,1269 1449,1268 1449,1269 1450,1269 1450,1270 1451,1270 1451,1271 1453,1271 1453,1272 1456,1272 1456,1273 1466,1273 
	1466,1272 1468,1272 1468,1271 1470,1271 1470,1270 1472,1270 1472,1269 1473,1269 1473,1270 1475,1270 1475,1271 1477,1271 
	1477,1272 1479,1272 1479,1273 1489,1273 1489,1272 1492,1272 1492,1271 1494,1271 1494,1270 1495,1270 1495,1269 1496,1269 
	1496,1268 1496,1269 1497,1269 1497,1270 1499,1270 1499,1271 1501,1271 1501,1272 1503,1272 1503,1273 1513,1273 1513,1272 
	1516,1272 1516,1271 1518,1271 1518,1270 1519,1270 1519,1269 1520,1269 1520,1268 1520,1269 1521,1269 1521,1270 1522,1270 
	1522,1271 1524,1271 1524,1272 1527,1272 1527,1273 1537,1273 1537,1272 1539,1272 1539,1271 1542,1271 1542,1270 1542,1285 
	1545,1285 1545,1284 1546,1284 1546,1264 1545,1264 1545,1263 1542,1263 1542,1264 1541,1264 1541,1265 1540,1265 1540,1266 
	1539,1266 1539,1267 1537,1267 1537,1268 1534,1268 1534,1269 1529,1269 1529,1268 1527,1268 1527,1267 1525,1267 1525,1266 
	1523,1266 1523,1265 1522,1265 1522,1264 1521,1264 1521,1263 1519,1263 1519,1264 1518,1264 1518,1265 1517,1265 1517,1266 
	1515,1266 1515,1267 1513,1267 1513,1268 1511,1268 1511,1269 1505,1269 1505,1268 1503,1268 1503,1267 1501,1267 1501,1266 
	1500,1266 1500,1265 1499,1265 1499,1264 1497,1264 1497,1263 1495,1263 1495,1264 1494,1264 1494,1265 1493,1265 1493,1266 
	1491,1266 1491,1267 1490,1267 1490,1268 1487,1268 1487,1269 1482,1269 1482,1268 1479,1268 1479,1267 1477,1267 1477,1266 
	1476,1266 1476,1265 1475,1265 1475,1264 1474,1264 1474,1263 1471,1263 1471,1264 1470,1264 1470,1265 1469,1265 1469,1266 
	1468,1266 1468,1267 1466,1267 1466,1268 1463,1268 1463,1269 1458,1269 1458,1268 1455,1268 1455,1267 1453,1267 1453,1266 
	1452,1266 1452,1265 1451,1265 1451,1264 1450,1264 1450,1263 1447,1263 1447,1264 1446,1264 1446,1265 1445,1265 1445,1266 
	1444,1266 1444,1267 1442,1267 1442,1268 1440,1268 1440,1269 1434,1269 1434,1268 1432,1268 1432,1267 1430,1267 1430,1266 
	1429,1266 1429,1265 1428,1265 1428,1264 1426,1264 1426,1263 1424,1263 1424,1264 1423,1264 1423,1265 1422,1265 1422,1266 
	1420,1266 1420,1267 1419,1267 1419,1268 1416,1268 1416,1269 1410,1269 1410,1268 1408,1268 1408,1267 1406,1267 1406,1266 
	1405,1266 1405,1265 1404,1265 1404,1264 1403,1264 1403,1263 1400,1263 1400,1264 1399,1264 1399,1265 1398,1265 1398,1266 
	1397,1266 1397,1267 1395,1267 1395,1268 1392,1268 1392,1269 1392,1260 1393,1260 1393,1249 1394,1249 1394,1243 1395,1243 
	1395,1238 1396,1238 1396,1234 1397,1234 1397,1230 1398,1230 1398,1227 1399,1227 1399,1224 1400,1224 1400,1221 1401,1221 
	1401,1218 1402,1218 1402,1216 1403,1216 1403,1214 1404,1214 1404,1211 1405,1211 1405,1209 1406,1209 1406,1207 1407,1207 
	1407,1205 1408,1205 1408,1204 1409,1204 1409,1203 1410,1203 1410,1202 1411,1202 "/>
</svg>
