<?xml version="1.0" encoding="UTF-8" standalone="no"?>
<svg
   version="1.1"
   id="Map"
   class="gen-by-synoptic-designer"
   viewBox="0 0 3309 2339"
   xml:space="preserve"
   sodipodi:docname="FUCPP09.svg"
   inkscape:version="1.3.2 (091e20e, 2023-11-25, custom)"
   xmlns:inkscape="http://www.inkscape.org/namespaces/inkscape"
   xmlns:sodipodi="http://sodipodi.sourceforge.net/DTD/sodipodi-0.dtd"
   xmlns="http://www.w3.org/2000/svg"
   xmlns:svg="http://www.w3.org/2000/svg"><defs
     id="defs1" /><sodipodi:namedview
     id="namedview1"
     pagecolor="#505050"
     bordercolor="#eeeeee"
     borderopacity="1"
     inkscape:showpageshadow="0"
     inkscape:pageopacity="0"
     inkscape:pagecheckerboard="0"
     inkscape:deskcolor="#505050"
     inkscape:zoom="0.34758444"
     inkscape:cx="1654.2743"
     inkscape:cy="1169.5"
     inkscape:window-width="1920"
     inkscape:window-height="1009"
     inkscape:window-x="1912"
     inkscape:window-y="-8"
     inkscape:window-maximized="1"
     inkscape:current-layer="Map" /><polygon
     id="v-6000"
     title=""
     points="585,887,832,887,854,887,864,887,874,887,885,889,892,897,898,908,902,921,905,931,907,946,908,956,908,973,906,982,903,994,899,1004,895,1017,888,1024,882,1028,873,1030,605,1030,589,1030,586,1030,581,1027,569,1019,559,993,553,975,569,1017,585,1027,582,1027,582,1026,580,1026,580,1025,578,1025,578,1024,576,1024,576,1023,575,1023,575,1022,573,1022,573,1021,572,1021,572,1020,571,1020,571,1019,570,1019,570,1017,569,1017,569,1015,568,1015,568,1013,567,1013,567,1011,566,1011,566,1009,565,1009,565,1006,564,1006,564,1004,563,1004,563,1001,562,1001,562,998,561,998,561,995,560,995,560,992,559,992,559,988,558,988,558,984,557,984,557,979,556,979,556,971,555,971,555,944,556,944,556,937,557,937,557,932,558,932,558,927,559,927,559,924,560,924,560,920,561,920,561,917,562,917,562,914,563,914,563,912,564,912,564,909,565,909,565,907,566,907,566,905,567,905,567,903,568,903,568,900,569,900,569,899,570,899,570,897,571,897,571,896,572,896,572,895,573,895,573,894,574,894,574,893,577,890" /></svg>
